<?xml version="1.0" encoding="utf-8"?>
<!-- Generator: Adobe Illustrator 15.0.2, SVG Export Plug-In . SVG Version: 6.00 Build 0)  -->
<!DOCTYPE svg PUBLIC "-//W3C//DTD SVG 1.1//EN" "http://www.w3.org/Graphics/SVG/1.1/DTD/svg11.dtd">
<svg version="1.1" id="Layer_1" xmlns="http://www.w3.org/2000/svg" xmlns:xlink="http://www.w3.org/1999/xlink" x="0px" y="0px"
	 width="142.625px" height="32px" viewBox="0 0 142.625 32" enable-background="new 0 0 142.625 32" xml:space="preserve">
<path opacity="0.65" fill="#383334" d="M27.943,12.091c-0.349-3.62-3.363-6.463-7.076-6.463c-2.87,0-5.332,1.705-6.462,4.153
	c-0.342-0.111-0.699-0.188-1.075-0.188c-1.973,0-3.571,1.605-3.571,3.576c0,0.393,0.077,0.76,0.193,1.115
	c-1.534,0.896-2.577,2.536-2.577,4.441c0,2.845,2.312,5.158,5.16,5.158h14.288c3.287,0,5.952-2.668,5.952-5.956
	C32.774,15.028,30.693,12.617,27.943,12.091z M21.418,16.296v4.4h-2.685v-4.4c-0.802-0.469-1.346-1.327-1.346-2.317
	c0-1.485,1.204-2.688,2.687-2.688c1.487,0,2.688,1.203,2.688,2.688C22.762,14.969,22.218,15.827,21.418,16.296z"/>
<text transform="matrix(1 0 0 1 38.9902 23.375)" opacity="0.64"><tspan x="0" y="0" fill="#383334" font-family="'BrandonGrotesque-Bold'" font-size="10.6844">C</tspan><tspan x="7.308" y="0" fill="#383334" font-family="'BrandonGrotesque-Bold'" font-size="10.6844">O</tspan><tspan x="15.642" y="0" fill="#383334" font-family="'BrandonGrotesque-Bold'" font-size="10.6844">MMONS CLOUD</tspan></text>
<g opacity="0.64">
	<text transform="matrix(1 0 0 1 40.375 12.875)" fill="#383334" font-family="'BrandonGrotesque-Regular'" font-size="8">SECURED BY</text>
</g>
<text transform="matrix(1 0 0 1 135.375 7)" display="none" fill="#383334" font-family="'BrandonGrotesque-Bold'" font-size="10.6844">C</text>
<text transform="matrix(1 0 0 1 0 7)" display="none" fill="#383334" font-family="'BrandonGrotesque-Bold'" font-size="10.6844">C</text>
<text transform="matrix(1 0 0 1 135.375 32)" display="none" fill="#383334" font-family="'BrandonGrotesque-Bold'" font-size="10.6844">C</text>
<text transform="matrix(1 0 0 1 0 32)" display="none" fill="#383334" font-family="'BrandonGrotesque-Bold'" font-size="10.6844">C</text>
</svg>
