<?xml version="1.0" encoding="utf-8"?>
<!-- Generator: Adobe Illustrator 15.0.2, SVG Export Plug-In . SVG Version: 6.00 Build 0)  -->
<!DOCTYPE svg PUBLIC "-//W3C//DTD SVG 1.1//EN" "http://www.w3.org/Graphics/SVG/1.1/DTD/svg11.dtd">
<svg version="1.1" id="Layer_1" xmlns="http://www.w3.org/2000/svg" xmlns:xlink="http://www.w3.org/1999/xlink" x="0px" y="0px"
	 width="16px" height="16px" viewBox="0 0 16 16" enable-background="new 0 0 16 16" xml:space="preserve">
<path opacity="0.64" fill="#6BD2D9" enable-background="new    " d="M12.7,6.653c-0.21-2.177-2.022-3.887-4.255-3.887
	c-1.726,0-3.207,1.025-3.886,2.498c-0.206-0.067-0.42-0.113-0.646-0.113c-1.187,0-2.147,0.965-2.147,2.15
	c0,0.236,0.046,0.457,0.116,0.671c-0.922,0.539-1.55,1.525-1.55,2.67c0,1.711,1.391,3.102,3.103,3.102h8.592
	c1.977,0,3.58-1.604,3.58-3.582C15.605,8.419,14.354,6.97,12.7,6.653z"/>
</svg>
